Coordinates
version=1
nRows=11
nColumns=40
inDegrees=yes

Units are S.I. units (second, meters, Newtons, ...)
Angles are in degrees.

endheader
time	pelvis_tilt	pelvis_list	pelvis_rotation	pelvis_tx	pelvis_ty	pelvis_tz	hip_flexion_r	hip_adduction_r	hip_rotation_r	knee_angle_r	knee_angle_r_beta	ankle_angle_r	subtalar_angle_r	mtp_angle_r	hip_flexion_l	hip_adduction_l	hip_rotation_l	knee_angle_l	knee_angle_l_beta	ankle_angle_l	subtalar_angle_l	mtp_angle_l	lumbar_extension	lumbar_bending	lumbar_rotation	arm_flex_r	arm_add_r	arm_rot_r	elbow_flex_r	pro_sup_r	wrist_flex_r	wrist_dev_r	arm_flex_l	arm_add_l	arm_rot_l	elbow_flex_l	pro_sup_l	wrist_flex_l	wrist_dev_l
     17.17000000	     -5.51723254	     -6.61225835	     -0.12487237	      1.04251733	      0.93097796	      0.50771216	     12.52591385	      4.92013731	    -18.57297394	     11.90797082	     11.90797082	      6.14379308	      4.96561024	     -4.78519740	     32.72174105	    -14.91221701	      1.46245159	     66.38815205	     66.38815205	     11.84458807	    -18.92921277	     14.17494828	    -12.65703836	      8.10318251	      4.89098213	     12.98855399	    -14.76683160	     -4.06612159	     43.12809403	     45.68780233	      0.00000000	      0.00000000	      7.81469858	     -9.65058164	      1.87418234	     60.55035518	     46.51879623	      0.00000000	      0.00000000
     17.18142857	     -5.63326929	     -6.68303611	      0.26200866	      1.04075755	      0.93074936	      0.50836125	     12.18198529	      5.03947551	    -18.70083600	     11.88970383	     11.88970383	      6.48356469	      4.61699654	     -4.98390237	     34.47253626	    -14.81840244	      1.81646533	     65.06238065	     65.06238065	     11.99738869	    -18.91311458	     14.47490253	    -12.58752872	      8.04139707	      4.25311405	     15.99584713	    -14.68745485	     -3.96031978	     44.39507983	     45.65311610	      0.00000000	      0.00000000	      6.41121124	     -9.67241984	      2.22574518	     57.27515088	     46.45360664	      0.00000000	      0.00000000
     17.19285714	     -5.71737372	     -6.79976975	      0.57840847	      1.03897869	      0.93059203	      0.50908488	     11.75522075	      5.27169200	    -18.58942582	     11.73912777	     11.73912777	      6.83549556	      4.14922834	     -5.04706890	     35.99971395	    -14.75646518	      2.12649371	     63.46369834	     63.46369834	     11.90761610	    -18.89243583	     14.72914729	    -12.57082911	      8.02311762	      4.34288486	     18.55290123	    -15.21874416	     -3.19211092	     45.60721902	     45.58713950	      0.00000000	      0.00000000	      6.04532916	     -9.00410205	      2.24666346	     52.31481668	     46.43056063	      0.00000000	      0.00000000
     17.20428571	     -5.77078080	     -6.85248261	      0.91039781	      1.03736245	      0.93039856	      0.50964140	     11.27673343	      5.41155657	    -18.61236565	     11.57708290	     11.57708290	      7.21812720	      3.87930767	     -5.07251155	     37.27734032	    -14.56335315	      2.39495978	     61.58341165	     61.58341165	     11.77671936	    -18.87775373	     14.90075798	    -12.64551461	      7.93485742	      3.83322813	     21.30028048	    -15.16237862	     -3.12566653	     47.32613543	     45.53692558	      0.00000000	      0.00000000	      4.60909356	     -8.99825781	      2.48624596	     49.74509029	     46.37865475	      0.00000000	      0.00000000
     17.21571429	     -5.82630860	     -6.89412848	      1.21298449	      1.03578130	      0.93023741	      0.51006142	     10.77798753	      5.55920705	    -18.50464997	     11.35601589	     11.35601589	      7.59326577	      3.50893440	     -4.99244561	     38.35712115	    -14.32738603	      2.60687316	     59.42097138	     59.42097138	     11.47387803	    -18.83109202	     14.97509694	    -12.63354740	      7.86291687	      4.06414197	     23.55684664	    -15.86611482	     -2.20172510	     48.90145201	     45.45414526	      0.00000000	      0.00000000	      4.70729855	     -8.25118926	      2.36678432	     44.08210026	     46.36818525	      0.00000000	      0.00000000
     17.22714286	     -5.83852857	     -6.85284940	      1.48380007	      1.03438541	      0.93008031	      0.51031035	     10.21203222	      5.59604564	    -18.49277278	     11.13210792	     11.13210792	      7.97328455	      3.35168284	     -5.02424403	     39.16383226	    -13.94748363	      2.81385328	     57.00481482	     57.00481482	     11.24113664	    -18.73588381	     15.17735339	    -12.74834185	      7.69668455	      3.66223052	     26.11106833	    -15.78202934	     -2.21368472	     50.65563849	     45.40652698	      0.00000000	      0.00000000	      3.34288260	     -8.24496060	      2.49698382	     41.91768908	     46.32701405	      0.00000000	      0.00000000
     17.23857143	     -5.86709525	     -6.78844201	      1.74919409	      1.03305097	      0.92986275	      0.51033437	      9.62193314	      5.61056857	    -18.44414060	     10.83505736	     10.83505736	      8.35380267	      3.20966658	     -5.06021454	     39.79765731	    -13.46766907	      3.06690867	     54.33319370	     54.33319370	     10.94609748	    -18.59948142	     15.25287923	    -12.82151289	      7.51010004	      3.35770054	     28.54828178	    -15.79958071	     -2.03033017	     52.42068254	     45.35014055	      0.00000000	      0.00000000	      2.29963063	     -8.11256755	      2.59216602	     39.10317988	     46.29111975	      0.00000000	      0.00000000
     17.25000000	     -5.89664559	     -6.71486879	      1.99278132	      1.03187319	      0.92956444	      0.51020416	      9.00540575	      5.61168291	    -18.39954314	     10.51088333	     10.51088333	      8.73822594	      3.10429288	     -5.11616982	     40.24735063	    -12.93805244	      3.39112154	     51.44850848	     51.44850848	     10.59006446	    -18.34423421	     15.06107278	    -12.81913738	      7.31941326	      3.18118314	     30.79060505	    -15.96865132	     -1.70067592	     54.36197862	     45.28163842	      0.00000000	      0.00000000	      1.48900270	     -7.89355876	      2.62451537	     35.95153725	     46.26571157	      0.00000000	      0.00000000
     17.26142857	     -5.97941960	     -6.67576164	      2.20462251	      1.03074925	      0.92911373	      0.50988355	      8.44917072	      5.63198578	    -18.34595725	     10.20003148	     10.20003148	      9.11250725	      3.04588153	     -5.23577016	     40.55456566	    -12.47990020	      3.65937588	     48.28321930	     48.28321930	      9.69548464	    -17.90760543	     13.34871166	    -12.75530975	      7.22234672	      3.93097415	     32.10302072	    -17.31747912	     -0.75999133	     57.50118718	     45.15475588	      0.00000000	      0.00000000	      2.00385483	     -7.14278855	      2.10090205	     30.57129439	     46.33074730	      0.00000000	      0.00000000
     17.27285714	     -6.01386551	     -6.55987734	      2.41560323	      1.02980620	      0.92866243	      0.50940588	      7.82324985	      5.56380766	    -18.27922167	      9.89824626	      9.89824626	      9.53657739	      3.00404023	     -5.33415014	     40.67519435	    -11.88463204	      4.04306066	     45.09960177	     45.09960177	      9.54570044	    -17.16577630	     13.38302392	    -12.76295186	      7.00551087	      3.62824358	     34.30434128	    -17.20017572	     -0.90903716	     59.49074396	     45.10628795	      0.00000000	      0.00000000	      0.59120646	     -7.20479618	      2.03648134	     29.25331626	     46.31490565	      0.00000000	      0.00000000
     17.28428571	     -6.03723515	     -6.46493768	      2.62051932	      1.02904885	      0.92812690	      0.50880513	      7.16691178	      5.51286268	    -18.22878044	      9.58764903	      9.58764903	      9.97863210	      2.96153106	     -5.44157795	     40.64386503	    -11.37114437	      4.34726173	     41.83829262	     41.83829262	      9.43419345	    -16.08827064	     13.26007138	    -12.74384026	      6.83605455	      3.40025713	     36.33678717	    -17.14555003	     -0.89123967	     61.70002921	     45.04326748	      0.00000000	      0.00000000	     -0.72680905	     -7.26227990	      1.98827787	     27.83918884	     46.29918048	      0.00000000	      0.00000000
